<mxfile host="app.diagrams.net" modified="2023-10-06T08:29:53.894Z" agent="Mozilla/5.0 (Windows NT 10.0; Win64; x64) AppleWebKit/537.36 (KHTML, like Gecko) Chrome/117.0.0.0 Safari/537.36" etag="dvNow9P8dO4n92tkxk24" version="22.0.0" type="device">
  <diagram name="Page-1" id="GXn4NyftgjCnc_pro_wv">
    <mxGraphModel dx="667" dy="357" grid="1" gridSize="10" guides="1" tooltips="1" connect="1" arrows="1" fold="1" page="1" pageScale="1" pageWidth="827" pageHeight="1169" math="0" shadow="0">
      <root>
        <mxCell id="0" />
        <mxCell id="1" parent="0" />
        <mxCell id="5K8NoBRGnNFA0djar0UY-9" value="NewsSite" style="swimlane;fontStyle=0;childLayout=stackLayout;horizontal=1;startSize=26;fillColor=none;horizontalStack=0;resizeParent=1;resizeParentMax=0;resizeLast=0;collapsible=1;marginBottom=0;whiteSpace=wrap;html=1;fontFamily=Lexend;fontSource=https%3A%2F%2Ffonts.googleapis.com%2Fcss%3Ffamily%3DLexend;" parent="1" vertex="1">
          <mxGeometry x="100" y="40" width="140" height="52" as="geometry" />
        </mxCell>
        <mxCell id="5K8NoBRGnNFA0djar0UY-11" value="Name : TEXT" style="text;strokeColor=none;fillColor=none;align=left;verticalAlign=top;spacingLeft=4;spacingRight=4;overflow=hidden;rotatable=0;points=[[0,0.5],[1,0.5]];portConstraint=eastwest;whiteSpace=wrap;html=1;fontFamily=Lexend;fontSource=https%3A%2F%2Ffonts.googleapis.com%2Fcss%3Ffamily%3DLexend;" parent="5K8NoBRGnNFA0djar0UY-9" vertex="1">
          <mxGeometry y="26" width="140" height="26" as="geometry" />
        </mxCell>
        <mxCell id="J6VYNuphooG4Fi7uj8pG-24" style="edgeStyle=orthogonalEdgeStyle;rounded=0;orthogonalLoop=1;jettySize=auto;html=1;entryX=0.5;entryY=1;entryDx=0;entryDy=0;endArrow=none;endFill=0;" parent="1" source="5K8NoBRGnNFA0djar0UY-1" target="5K8NoBRGnNFA0djar0UY-9" edge="1">
          <mxGeometry relative="1" as="geometry" />
        </mxCell>
        <mxCell id="wiRZB8RW_GmJvZC_cgkw-4" style="edgeStyle=orthogonalEdgeStyle;rounded=0;orthogonalLoop=1;jettySize=auto;html=1;entryX=0.5;entryY=0;entryDx=0;entryDy=0;endArrow=none;endFill=0;" edge="1" parent="1" source="5K8NoBRGnNFA0djar0UY-1" target="5K8NoBRGnNFA0djar0UY-23">
          <mxGeometry relative="1" as="geometry" />
        </mxCell>
        <mxCell id="5K8NoBRGnNFA0djar0UY-1" value="NewsArticle" style="swimlane;fontStyle=0;childLayout=stackLayout;horizontal=1;startSize=26;fillColor=none;horizontalStack=0;resizeParent=1;resizeParentMax=0;resizeLast=0;collapsible=1;marginBottom=0;whiteSpace=wrap;html=1;fontFamily=Lexend;fontSource=https%3A%2F%2Ffonts.googleapis.com%2Fcss%3Ffamily%3DLexend;" parent="1" vertex="1">
          <mxGeometry x="100" y="157" width="140" height="130" as="geometry" />
        </mxCell>
        <mxCell id="5K8NoBRGnNFA0djar0UY-2" value="Title : TEXT" style="text;align=left;verticalAlign=top;spacingLeft=4;spacingRight=4;overflow=hidden;rotatable=0;points=[[0,0.5],[1,0.5]];portConstraint=eastwest;whiteSpace=wrap;html=1;fillColor=none;fontFamily=Lexend;fontSource=https%3A%2F%2Ffonts.googleapis.com%2Fcss%3Ffamily%3DLexend;" parent="5K8NoBRGnNFA0djar0UY-1" vertex="1">
          <mxGeometry y="26" width="140" height="26" as="geometry" />
        </mxCell>
        <mxCell id="5K8NoBRGnNFA0djar0UY-3" value="Body : TEXT" style="text;strokeColor=none;fillColor=none;align=left;verticalAlign=top;spacingLeft=4;spacingRight=4;overflow=hidden;rotatable=0;points=[[0,0.5],[1,0.5]];portConstraint=eastwest;whiteSpace=wrap;html=1;fontFamily=Lexend;fontSource=https%3A%2F%2Ffonts.googleapis.com%2Fcss%3Ffamily%3DLexend;" parent="5K8NoBRGnNFA0djar0UY-1" vertex="1">
          <mxGeometry y="52" width="140" height="26" as="geometry" />
        </mxCell>
        <mxCell id="5K8NoBRGnNFA0djar0UY-4" value="Date : DATE" style="text;strokeColor=none;fillColor=none;align=left;verticalAlign=top;spacingLeft=4;spacingRight=4;overflow=hidden;rotatable=0;points=[[0,0.5],[1,0.5]];portConstraint=eastwest;whiteSpace=wrap;html=1;fontFamily=Lexend;fontSource=https%3A%2F%2Ffonts.googleapis.com%2Fcss%3Ffamily%3DLexend;" parent="5K8NoBRGnNFA0djar0UY-1" vertex="1">
          <mxGeometry y="78" width="140" height="26" as="geometry" />
        </mxCell>
        <mxCell id="5K8NoBRGnNFA0djar0UY-48" value="Publisher : TEXT" style="text;strokeColor=none;fillColor=none;align=left;verticalAlign=top;spacingLeft=4;spacingRight=4;overflow=hidden;rotatable=0;points=[[0,0.5],[1,0.5]];portConstraint=eastwest;whiteSpace=wrap;html=1;fontFamily=Lexend;fontSource=https%3A%2F%2Ffonts.googleapis.com%2Fcss%3Ffamily%3DLexend;" parent="5K8NoBRGnNFA0djar0UY-1" vertex="1">
          <mxGeometry y="104" width="140" height="26" as="geometry" />
        </mxCell>
        <mxCell id="J6VYNuphooG4Fi7uj8pG-17" style="edgeStyle=orthogonalEdgeStyle;rounded=0;orthogonalLoop=1;jettySize=auto;html=1;entryX=0.5;entryY=0;entryDx=0;entryDy=0;endArrow=none;endFill=0;" parent="1" source="5K8NoBRGnNFA0djar0UY-23" target="5K8NoBRGnNFA0djar0UY-38" edge="1">
          <mxGeometry relative="1" as="geometry" />
        </mxCell>
        <mxCell id="wiRZB8RW_GmJvZC_cgkw-5" style="edgeStyle=orthogonalEdgeStyle;rounded=0;orthogonalLoop=1;jettySize=auto;html=1;endArrow=none;endFill=0;" edge="1" parent="1" source="5K8NoBRGnNFA0djar0UY-23" target="5K8NoBRGnNFA0djar0UY-31">
          <mxGeometry relative="1" as="geometry">
            <Array as="points">
              <mxPoint x="410" y="411" />
              <mxPoint x="410" y="411" />
            </Array>
          </mxGeometry>
        </mxCell>
        <mxCell id="5K8NoBRGnNFA0djar0UY-23" value="Team" style="swimlane;fontStyle=0;childLayout=stackLayout;horizontal=1;startSize=26;fillColor=none;horizontalStack=0;resizeParent=1;resizeParentMax=0;resizeLast=0;collapsible=1;marginBottom=0;whiteSpace=wrap;html=1;fontFamily=Lexend;fontSource=https%3A%2F%2Ffonts.googleapis.com%2Fcss%3Ffamily%3DLexend;" parent="1" vertex="1">
          <mxGeometry x="100" y="359" width="140" height="78" as="geometry" />
        </mxCell>
        <mxCell id="5K8NoBRGnNFA0djar0UY-24" value="Name : TEXT" style="text;strokeColor=none;fillColor=none;align=left;verticalAlign=top;spacingLeft=4;spacingRight=4;overflow=hidden;rotatable=0;points=[[0,0.5],[1,0.5]];portConstraint=eastwest;whiteSpace=wrap;html=1;fontFamily=Lexend;fontSource=https%3A%2F%2Ffonts.googleapis.com%2Fcss%3Ffamily%3DLexend;" parent="5K8NoBRGnNFA0djar0UY-23" vertex="1">
          <mxGeometry y="26" width="140" height="26" as="geometry" />
        </mxCell>
        <mxCell id="5K8NoBRGnNFA0djar0UY-30" value="History : TEXT" style="text;strokeColor=none;fillColor=none;align=left;verticalAlign=top;spacingLeft=4;spacingRight=4;overflow=hidden;rotatable=0;points=[[0,0.5],[1,0.5]];portConstraint=eastwest;whiteSpace=wrap;html=1;fontFamily=Lexend;fontSource=https%3A%2F%2Ffonts.googleapis.com%2Fcss%3Ffamily%3DLexend;" parent="5K8NoBRGnNFA0djar0UY-23" vertex="1">
          <mxGeometry y="52" width="140" height="26" as="geometry" />
        </mxCell>
        <mxCell id="5K8NoBRGnNFA0djar0UY-31" value="Match" style="swimlane;fontStyle=0;childLayout=stackLayout;horizontal=1;startSize=26;fillColor=none;horizontalStack=0;resizeParent=1;resizeParentMax=0;resizeLast=0;collapsible=1;marginBottom=0;whiteSpace=wrap;html=1;fontFamily=Lexend;fontSource=https%3A%2F%2Ffonts.googleapis.com%2Fcss%3Ffamily%3DLexend;" parent="1" vertex="1">
          <mxGeometry x="470" y="359" width="270" height="130" as="geometry" />
        </mxCell>
        <mxCell id="wiRZB8RW_GmJvZC_cgkw-10" value="HomeTeam : TEXT" style="text;strokeColor=none;fillColor=none;align=left;verticalAlign=top;spacingLeft=4;spacingRight=4;overflow=hidden;rotatable=0;points=[[0,0.5],[1,0.5]];portConstraint=eastwest;whiteSpace=wrap;html=1;fontFamily=Lexend;fontSource=https%3A%2F%2Ffonts.googleapis.com%2Fcss%3Ffamily%3DLexend;" vertex="1" parent="5K8NoBRGnNFA0djar0UY-31">
          <mxGeometry y="26" width="270" height="26" as="geometry" />
        </mxCell>
        <mxCell id="wiRZB8RW_GmJvZC_cgkw-9" value="AwayTeam: TEXT" style="text;strokeColor=none;fillColor=none;align=left;verticalAlign=top;spacingLeft=4;spacingRight=4;overflow=hidden;rotatable=0;points=[[0,0.5],[1,0.5]];portConstraint=eastwest;whiteSpace=wrap;html=1;fontFamily=Lexend;fontSource=https%3A%2F%2Ffonts.googleapis.com%2Fcss%3Ffamily%3DLexend;" vertex="1" parent="5K8NoBRGnNFA0djar0UY-31">
          <mxGeometry y="52" width="270" height="26" as="geometry" />
        </mxCell>
        <mxCell id="5K8NoBRGnNFA0djar0UY-32" value="FinalResult : ENUM (Home, Draw, Away)" style="text;strokeColor=none;fillColor=none;align=left;verticalAlign=top;spacingLeft=4;spacingRight=4;overflow=hidden;rotatable=0;points=[[0,0.5],[1,0.5]];portConstraint=eastwest;whiteSpace=wrap;html=1;fontFamily=Lexend;fontSource=https%3A%2F%2Ffonts.googleapis.com%2Fcss%3Ffamily%3DLexend;" parent="5K8NoBRGnNFA0djar0UY-31" vertex="1">
          <mxGeometry y="78" width="270" height="26" as="geometry" />
        </mxCell>
        <mxCell id="5K8NoBRGnNFA0djar0UY-33" value="Events : TEXT" style="text;strokeColor=none;fillColor=none;align=left;verticalAlign=top;spacingLeft=4;spacingRight=4;overflow=hidden;rotatable=0;points=[[0,0.5],[1,0.5]];portConstraint=eastwest;whiteSpace=wrap;html=1;fontFamily=Lexend;fontSource=https%3A%2F%2Ffonts.googleapis.com%2Fcss%3Ffamily%3DLexend;" parent="5K8NoBRGnNFA0djar0UY-31" vertex="1">
          <mxGeometry y="104" width="270" height="26" as="geometry" />
        </mxCell>
        <mxCell id="J6VYNuphooG4Fi7uj8pG-39" style="edgeStyle=orthogonalEdgeStyle;rounded=0;orthogonalLoop=1;jettySize=auto;html=1;entryX=0;entryY=0.5;entryDx=0;entryDy=0;endArrow=none;endFill=0;" parent="1" source="5K8NoBRGnNFA0djar0UY-38" target="5K8NoBRGnNFA0djar0UY-3" edge="1">
          <mxGeometry relative="1" as="geometry">
            <Array as="points">
              <mxPoint x="50" y="531" />
              <mxPoint x="50" y="222" />
            </Array>
          </mxGeometry>
        </mxCell>
        <mxCell id="5K8NoBRGnNFA0djar0UY-38" value="Player" style="swimlane;fontStyle=0;childLayout=stackLayout;horizontal=1;startSize=26;fillColor=none;horizontalStack=0;resizeParent=1;resizeParentMax=0;resizeLast=0;collapsible=1;marginBottom=0;whiteSpace=wrap;html=1;fontFamily=Lexend;fontSource=https%3A%2F%2Ffonts.googleapis.com%2Fcss%3Ffamily%3DLexend;" parent="1" vertex="1">
          <mxGeometry x="100" y="505" width="140" height="52" as="geometry" />
        </mxCell>
        <mxCell id="5K8NoBRGnNFA0djar0UY-39" value="Name : TEXT" style="text;strokeColor=none;fillColor=none;align=left;verticalAlign=top;spacingLeft=4;spacingRight=4;overflow=hidden;rotatable=0;points=[[0,0.5],[1,0.5]];portConstraint=eastwest;whiteSpace=wrap;html=1;fontFamily=Lexend;fontSource=https%3A%2F%2Ffonts.googleapis.com%2Fcss%3Ffamily%3DLexend;" parent="5K8NoBRGnNFA0djar0UY-38" vertex="1">
          <mxGeometry y="26" width="140" height="26" as="geometry" />
        </mxCell>
        <mxCell id="wiRZB8RW_GmJvZC_cgkw-6" style="edgeStyle=orthogonalEdgeStyle;rounded=0;orthogonalLoop=1;jettySize=auto;html=1;endArrow=none;endFill=0;dashed=1;" edge="1" parent="1" source="J6VYNuphooG4Fi7uj8pG-1">
          <mxGeometry relative="1" as="geometry">
            <mxPoint x="360" y="410" as="targetPoint" />
          </mxGeometry>
        </mxCell>
        <mxCell id="J6VYNuphooG4Fi7uj8pG-1" value="Match Report" style="swimlane;fontStyle=0;childLayout=stackLayout;horizontal=1;startSize=26;fillColor=none;horizontalStack=0;resizeParent=1;resizeParentMax=0;resizeLast=0;collapsible=1;marginBottom=0;whiteSpace=wrap;html=1;fontFamily=Lexend;fontSource=https%3A%2F%2Ffonts.googleapis.com%2Fcss%3Ffamily%3DLexend;" parent="1" vertex="1">
          <mxGeometry x="290" y="252.5" width="140" height="104" as="geometry" />
        </mxCell>
        <mxCell id="J6VYNuphooG4Fi7uj8pG-2" value="Title : TEXT" style="text;strokeColor=none;fillColor=none;align=left;verticalAlign=top;spacingLeft=4;spacingRight=4;overflow=hidden;rotatable=0;points=[[0,0.5],[1,0.5]];portConstraint=eastwest;whiteSpace=wrap;html=1;fontFamily=Lexend;fontSource=https%3A%2F%2Ffonts.googleapis.com%2Fcss%3Ffamily%3DLexend;" parent="J6VYNuphooG4Fi7uj8pG-1" vertex="1">
          <mxGeometry y="26" width="140" height="26" as="geometry" />
        </mxCell>
        <mxCell id="J6VYNuphooG4Fi7uj8pG-3" value="Body : TEXT" style="text;strokeColor=none;fillColor=none;align=left;verticalAlign=top;spacingLeft=4;spacingRight=4;overflow=hidden;rotatable=0;points=[[0,0.5],[1,0.5]];portConstraint=eastwest;whiteSpace=wrap;html=1;fontFamily=Lexend;fontSource=https%3A%2F%2Ffonts.googleapis.com%2Fcss%3Ffamily%3DLexend;" parent="J6VYNuphooG4Fi7uj8pG-1" vertex="1">
          <mxGeometry y="52" width="140" height="26" as="geometry" />
        </mxCell>
        <mxCell id="J6VYNuphooG4Fi7uj8pG-8" value="Date : DATETIME" style="text;strokeColor=none;fillColor=none;align=left;verticalAlign=top;spacingLeft=4;spacingRight=4;overflow=hidden;rotatable=0;points=[[0,0.5],[1,0.5]];portConstraint=eastwest;whiteSpace=wrap;html=1;fontFamily=Lexend;fontSource=https%3A%2F%2Ffonts.googleapis.com%2Fcss%3Ffamily%3DLexend;" parent="J6VYNuphooG4Fi7uj8pG-1" vertex="1">
          <mxGeometry y="78" width="140" height="26" as="geometry" />
        </mxCell>
        <mxCell id="J6VYNuphooG4Fi7uj8pG-13" value="&amp;nbsp; 2" style="edgeLabel;resizable=0;html=1;align=left;verticalAlign=bottom;fontFamily=Lexend;fontSource=https%3A%2F%2Ffonts.googleapis.com%2Fcss%3Ffamily%3DLexend;" parent="1" connectable="0" vertex="1">
          <mxGeometry x="240" y="430" as="geometry" />
        </mxCell>
        <mxCell id="J6VYNuphooG4Fi7uj8pG-18" value="&amp;nbsp;0..1" style="edgeLabel;resizable=0;html=1;align=right;verticalAlign=bottom;fontFamily=Lexend;fontSource=https%3A%2F%2Ffonts.googleapis.com%2Fcss%3Ffamily%3DLexend;" parent="1" connectable="0" vertex="1">
          <mxGeometry x="192.0014285714285" y="457" as="geometry" />
        </mxCell>
        <mxCell id="J6VYNuphooG4Fi7uj8pG-19" value="&amp;nbsp; *" style="edgeLabel;resizable=0;html=1;align=left;verticalAlign=bottom;fontFamily=Lexend;fontSource=https%3A%2F%2Ffonts.googleapis.com%2Fcss%3Ffamily%3DLexend;" parent="1" connectable="0" vertex="1">
          <mxGeometry x="169" y="505" as="geometry" />
        </mxCell>
        <mxCell id="J6VYNuphooG4Fi7uj8pG-22" value="*&amp;nbsp;" style="edgeLabel;resizable=0;html=1;align=right;verticalAlign=bottom;fontFamily=Lexend;fontSource=https%3A%2F%2Ffonts.googleapis.com%2Fcss%3Ffamily%3DLexend;" parent="1" connectable="0" vertex="1">
          <mxGeometry x="469.0004320447056" y="429.0021777388582" as="geometry" />
        </mxCell>
        <mxCell id="J6VYNuphooG4Fi7uj8pG-25" value="&amp;nbsp;*" style="edgeLabel;resizable=0;html=1;align=left;verticalAlign=bottom;fontFamily=Lexend;fontSource=https%3A%2F%2Ffonts.googleapis.com%2Fcss%3Ffamily%3DLexend;" parent="1" connectable="0" vertex="1">
          <mxGeometry x="170" y="157" as="geometry" />
        </mxCell>
        <mxCell id="J6VYNuphooG4Fi7uj8pG-26" value="1&amp;nbsp;" style="edgeLabel;resizable=0;html=1;align=right;verticalAlign=bottom;fontFamily=Lexend;fontSource=https%3A%2F%2Ffonts.googleapis.com%2Fcss%3Ffamily%3DLexend;" parent="1" connectable="0" vertex="1">
          <mxGeometry x="183.28006277200214" y="110.00286907692724" as="geometry" />
        </mxCell>
        <mxCell id="J6VYNuphooG4Fi7uj8pG-40" value="&amp;nbsp;*" style="edgeLabel;resizable=0;html=1;align=left;verticalAlign=bottom;fontFamily=Lexend;fontSource=https%3A%2F%2Ffonts.googleapis.com%2Fcss%3Ffamily%3DLexend;" parent="1" connectable="0" vertex="1">
          <mxGeometry x="87" y="547" as="geometry" />
        </mxCell>
        <mxCell id="J6VYNuphooG4Fi7uj8pG-41" value="&amp;nbsp;*" style="edgeLabel;resizable=0;html=1;align=left;verticalAlign=bottom;fontFamily=Lexend;fontSource=https%3A%2F%2Ffonts.googleapis.com%2Fcss%3Ffamily%3DLexend;" parent="1" connectable="0" vertex="1">
          <mxGeometry x="87" y="222" as="geometry" />
        </mxCell>
        <mxCell id="wiRZB8RW_GmJvZC_cgkw-2" value="&amp;nbsp;*" style="edgeLabel;resizable=0;html=1;align=left;verticalAlign=bottom;fontFamily=Lexend;fontSource=https%3A%2F%2Ffonts.googleapis.com%2Fcss%3Ffamily%3DLexend;" connectable="0" vertex="1" parent="1">
          <mxGeometry x="173.28" y="360" as="geometry" />
        </mxCell>
        <mxCell id="wiRZB8RW_GmJvZC_cgkw-3" value="*" style="edgeLabel;resizable=0;html=1;align=right;verticalAlign=bottom;fontFamily=Lexend;fontSource=https%3A%2F%2Ffonts.googleapis.com%2Fcss%3Ffamily%3DLexend;" connectable="0" vertex="1" parent="1">
          <mxGeometry x="181.00008201854124" y="304.4998052051004" as="geometry" />
        </mxCell>
      </root>
    </mxGraphModel>
  </diagram>
</mxfile>
